<svg width="181" height="80" fill="none" xmlns="http://www.w3.org/2000/svg">
    <path d="M68.31 58.488c-1.204 0-2.284-.195-3.238-.585-.955-.39-1.722-.967-2.3-1.731-.564-.764-.861-1.684-.893-2.76h4.272c.063.608.274 1.075.634 1.403.36.312.83.468 1.409.468.594 0 1.064-.133 1.408-.398.344-.28.516-.663.516-1.146 0-.406-.14-.741-.422-1.006a3.134 3.134 0 0 0-1.01-.655c-.39-.172-.954-.367-1.69-.585-1.064-.328-1.932-.655-2.605-.983a4.81 4.81 0 0 1-1.737-1.45c-.485-.64-.728-1.474-.728-2.504 0-1.528.556-2.721 1.667-3.58 1.11-.873 2.558-1.31 4.342-1.31 1.816 0 3.279.437 4.39 1.31 1.11.858 1.705 2.06 1.784 3.604h-4.343c-.031-.53-.227-.944-.587-1.24-.36-.312-.821-.468-1.385-.468-.485 0-.876.132-1.173.398-.297.249-.446.616-.446 1.1 0 .53.25.943.751 1.24.5.295 1.283.615 2.347.958 1.064.359 1.925.702 2.582 1.03a4.903 4.903 0 0 1 1.737 1.427c.485.624.728 1.427.728 2.41a4.66 4.66 0 0 1-.728 2.55c-.47.764-1.158 1.372-2.065 1.825-.908.452-1.98.678-3.216.678ZM55.328 41.9v16.424h-4.014v-9.85l-3.685 9.85h-3.24l-3.708-9.873v9.873h-4.014V41.9h4.741l4.624 11.37L50.61 41.9h4.718ZM30.115 41.9l-4.296 16.424H20.96l-2.629-10.809-2.723 10.81H10.75L6.572 41.9h4.295l2.37 11.956L16.173 41.9h4.413L23.4 53.856 25.796 41.9h4.319Z" fill="#00A76F"/>
    <path d="M129.405 66.34c.32 0 .605.067.856.2.255.131.454.327.597.587.147.26.221.573.221.94v2.388h-.833v-2.263c0-.362-.091-.639-.273-.83-.182-.196-.43-.294-.744-.294-.315 0-.566.098-.752.294-.182.191-.273.468-.273.83v2.263h-.833v-2.263c0-.362-.091-.639-.273-.83-.181-.196-.43-.294-.744-.294-.315 0-.565.098-.752.294-.182.191-.273.468-.273.83v2.263h-.84v-4.048h.84v.463c.138-.167.312-.297.524-.39.211-.093.437-.14.678-.14.324 0 .614.07.87.206.255.138.452.336.589.596.123-.245.315-.439.575-.58.261-.148.541-.221.84-.221ZM123.662 68.332c0 .152-.01.289-.029.411h-3.104c.025.324.145.583.362.779.216.196.481.294.796.294.452 0 .771-.189.958-.566h.907a1.84 1.84 0 0 1-.671.919c-.32.235-.718.352-1.194.352-.388 0-.737-.085-1.047-.257a1.922 1.922 0 0 1-.722-.735 2.282 2.282 0 0 1-.258-1.102c0-.416.083-.78.25-1.094.172-.319.411-.564.715-.735.31-.171.664-.257 1.062-.257.383 0 .725.083 1.024.25.3.166.533.401.701.705.167.299.25.644.25 1.036Zm-.877-.265a.95.95 0 0 0-.332-.742 1.188 1.188 0 0 0-.803-.279c-.29 0-.538.093-.745.28-.206.18-.329.428-.368.741h2.248ZM118.178 67.09v2.241c0 .152.034.262.103.33.074.064.196.096.368.096h.516v.698h-.663c-.378 0-.668-.088-.87-.264-.201-.177-.302-.463-.302-.86v-2.24h-.479v-.684h.479V65.4h.848v1.007h.987v.683h-.987ZM114.734 70.521c-.319 0-.607-.056-.862-.169a1.56 1.56 0 0 1-.598-.47 1.183 1.183 0 0 1-.235-.669h.869a.606.606 0 0 0 .244.434.926.926 0 0 0 .567.169c.236 0 .418-.044.546-.132.132-.093.199-.21.199-.353 0-.152-.074-.264-.221-.338a3.948 3.948 0 0 0-.686-.242 6.59 6.59 0 0 1-.744-.243 1.34 1.34 0 0 1-.502-.36c-.137-.161-.206-.374-.206-.639 0-.216.064-.411.192-.588a1.26 1.26 0 0 1 .545-.426c.241-.103.516-.154.826-.154.461 0 .833.117 1.113.353.285.23.437.546.457.947h-.841a.592.592 0 0 0-.221-.433c-.133-.108-.312-.162-.538-.162-.221 0-.391.042-.509.125a.388.388 0 0 0-.176.33c0 .108.039.199.118.272a.88.88 0 0 0 .287.177c.113.039.28.09.501.154.295.079.536.16.723.243.191.078.356.196.493.352.138.157.209.365.214.625 0 .23-.064.436-.191.617-.128.181-.31.323-.546.426a1.998 1.998 0 0 1-.818.154ZM112.626 66.407l-2.492 5.951h-.87l.826-1.969-1.6-3.982h.937l1.142 3.086 1.187-3.086h.87ZM106.506 70.521c-.319 0-.607-.056-.862-.169a1.55 1.55 0 0 1-.597-.47 1.184 1.184 0 0 1-.236-.669h.87a.608.608 0 0 0 .243.434.929.929 0 0 0 .568.169c.236 0 .417-.044.545-.132.133-.093.199-.21.199-.353 0-.152-.074-.264-.221-.338a3.948 3.948 0 0 0-.686-.242 6.728 6.728 0 0 1-.744-.243 1.33 1.33 0 0 1-.501-.36c-.138-.161-.207-.374-.207-.639 0-.216.064-.411.192-.588.128-.181.31-.323.545-.426.241-.103.516-.154.826-.154.462 0 .833.117 1.113.353.285.23.437.546.457.947h-.84a.599.599 0 0 0-.221-.433c-.133-.108-.312-.162-.538-.162-.222 0-.391.042-.509.125a.386.386 0 0 0-.177.33c0 .108.039.199.118.272a.892.892 0 0 0 .287.177c.113.039.281.09.502.154.295.079.535.16.722.243.192.078.356.196.494.352.137.157.209.365.214.625 0 .23-.064.436-.192.617s-.31.323-.545.426a2 2 0 0 1-.819.154ZM101.355 67.09v2.241c0 .152.035.262.104.33.073.064.196.096.368.096h.516v.698h-.663c-.379 0-.669-.088-.87-.264-.202-.177-.302-.463-.302-.86v-2.24h-.479v-.684h.479V65.4h.847v1.007h.988v.683h-.988ZM97.637 66.34c.32 0 .605.067.855.2.256.131.455.327.597.587.143.26.214.573.214.94v2.388h-.833v-2.263c0-.362-.09-.639-.272-.83-.182-.196-.43-.294-.745-.294s-.565.098-.752.294c-.182.191-.273.468-.273.83v2.263h-.84v-4.048h.84v.463c.138-.167.313-.297.524-.39.216-.093.445-.14.685-.14ZM94.761 68.332c0 .152-.01.289-.03.411h-3.103c.025.324.145.583.362.779.216.196.481.294.796.294.452 0 .771-.189.958-.566h.906a1.836 1.836 0 0 1-.67.919c-.32.235-.718.352-1.194.352-.389 0-.737-.085-1.047-.257a1.924 1.924 0 0 1-.723-.735 2.282 2.282 0 0 1-.258-1.102c0-.416.084-.78.251-1.094a1.81 1.81 0 0 1 .715-.735c.31-.171.663-.257 1.062-.257.383 0 .724.083 1.024.25.3.166.533.401.7.705.167.299.251.644.251 1.036Zm-.877-.265a.952.952 0 0 0-.332-.742 1.189 1.189 0 0 0-.803-.279c-.29 0-.538.093-.745.28-.206.18-.329.428-.368.741h2.248ZM88.296 66.34c.32 0 .604.067.855.2.256.131.455.327.597.587.148.26.221.573.221.94v2.388h-.833v-2.263c0-.362-.09-.639-.272-.83-.182-.196-.43-.294-.745-.294-.314 0-.565.098-.752.294-.181.191-.272.468-.272.83v2.263h-.833v-2.263c0-.362-.091-.639-.273-.83-.182-.196-.43-.294-.745-.294-.314 0-.565.098-.751.294-.182.191-.273.468-.273.83v2.263h-.84v-4.048h.84v.463c.138-.167.312-.297.523-.39.212-.093.438-.14.678-.14.325 0 .615.07.87.206.256.138.452.336.59.596a1.34 1.34 0 0 1 .575-.58c.26-.148.54-.221.84-.221ZM82.553 68.332c0 .152-.01.289-.03.411H79.42c.025.324.145.583.361.779.216.196.482.294.796.294.452 0 .772-.189.959-.566h.906a1.835 1.835 0 0 1-.67.919c-.32.235-.718.352-1.195.352-.388 0-.737-.085-1.046-.257a1.925 1.925 0 0 1-.723-.735 2.282 2.282 0 0 1-.258-1.102c0-.416.084-.78.25-1.094a1.81 1.81 0 0 1 .716-.735c.31-.171.663-.257 1.061-.257.384 0 .725.083 1.025.25.3.166.533.401.7.705.167.299.25.644.25 1.036Zm-.877-.265a.952.952 0 0 0-.332-.742 1.188 1.188 0 0 0-.803-.279c-.29 0-.539.093-.745.28-.206.18-.33.428-.369.741h2.249ZM75.471 66.34c.315 0 .592.064.833.192.246.122.437.277.575.463v-.588h.848v4.114c0 .373-.079.703-.236.992a1.69 1.69 0 0 1-.686.69c-.295.167-.648.25-1.061.25-.55 0-1.007-.13-1.371-.389a1.41 1.41 0 0 1-.62-1.043h.834a.89.89 0 0 0 .405.507c.211.132.462.198.752.198.339 0 .612-.103.818-.308.211-.206.317-.505.317-.897v-.676a1.739 1.739 0 0 1-1.408.676 1.86 1.86 0 0 1-.973-.264 1.966 1.966 0 0 1-.693-.75 2.349 2.349 0 0 1-.25-1.094c0-.407.083-.767.25-1.08a1.868 1.868 0 0 1 1.666-.992Zm1.408 2.087c0-.279-.059-.521-.177-.727a1.189 1.189 0 0 0-1.054-.632c-.216 0-.418.054-.604.162a1.186 1.186 0 0 0-.457.463c-.113.2-.17.44-.17.72 0 .279.057.524.17.734.118.211.27.373.457.485a1.216 1.216 0 0 0 1.209 0c.186-.108.336-.264.45-.47.117-.21.176-.456.176-.735ZM68.56 68.413c0-.407.083-.767.25-1.08a1.868 1.868 0 0 1 1.665-.992c.32 0 .598.064.834.19.24.123.432.278.574.464v-.588h.848v4.048h-.848v-.602c-.142.19-.336.35-.582.477a1.799 1.799 0 0 1-.84.191c-.35 0-.668-.088-.958-.264a1.965 1.965 0 0 1-.693-.75 2.349 2.349 0 0 1-.25-1.094Zm3.323.014c0-.279-.058-.521-.176-.727a1.189 1.189 0 0 0-1.054-.632c-.217 0-.418.054-.605.162a1.186 1.186 0 0 0-.457.463c-.113.2-.17.44-.17.72 0 .279.057.524.17.734.118.211.27.373.457.485a1.216 1.216 0 0 0 1.209 0c.187-.108.337-.264.45-.47.118-.21.176-.456.176-.735ZM66.101 66.34c.32 0 .605.067.855.2.256.131.455.327.597.587.143.26.214.573.214.94v2.388h-.833v-2.263c0-.362-.09-.639-.272-.83-.182-.196-.43-.294-.745-.294-.314 0-.565.098-.752.294-.182.191-.273.468-.273.83v2.263h-.84v-4.048h.84v.463c.138-.167.313-.297.524-.39.216-.093.445-.14.685-.14ZM58.777 68.413c0-.407.083-.767.25-1.08a1.868 1.868 0 0 1 1.666-.992c.32 0 .597.064.833.19.24.123.432.278.575.464v-.588h.848v4.048H62.1v-.602c-.143.19-.337.35-.582.477a1.799 1.799 0 0 1-.84.191c-.35 0-.669-.088-.959-.264a1.966 1.966 0 0 1-.693-.75 2.349 2.349 0 0 1-.25-1.094Zm3.324.014c0-.279-.059-.521-.177-.727a1.189 1.189 0 0 0-1.054-.632c-.216 0-.418.054-.604.162-.187.103-.34.257-.457.463-.113.2-.17.44-.17.72 0 .279.056.524.17.734.117.211.27.373.457.485a1.215 1.215 0 0 0 1.208 0c.187-.108.337-.264.45-.47.118-.21.177-.456.177-.735ZM56.314 66.34c.32 0 .605.067.855.2.256.131.455.327.597.587.148.26.221.573.221.94v2.388h-.833v-2.263c0-.362-.09-.639-.272-.83-.182-.196-.43-.294-.745-.294-.314 0-.565.098-.752.294-.181.191-.272.468-.272.83v2.263h-.833v-2.263c0-.362-.091-.639-.273-.83-.182-.196-.43-.294-.744-.294-.315 0-.566.098-.752.294-.182.191-.273.468-.273.83v2.263h-.84v-4.048h.84v.463c.138-.167.312-.297.523-.39.212-.093.438-.14.678-.14.325 0 .615.07.87.206.256.138.452.336.59.596.123-.245.314-.439.575-.58.26-.148.54-.221.84-.221ZM48.656 68.332c0 .152-.01.289-.03.411h-3.103c.025.324.145.583.361.779.217.196.482.294.797.294.452 0 .771-.189.958-.566h.906a1.836 1.836 0 0 1-.67.919c-.32.235-.718.352-1.194.352-.389 0-.737-.085-1.047-.257a1.925 1.925 0 0 1-.723-.735 2.283 2.283 0 0 1-.257-1.102c0-.416.083-.78.25-1.094a1.81 1.81 0 0 1 .715-.735c.31-.171.664-.257 1.062-.257.383 0 .724.083 1.024.25.3.166.533.401.7.705.167.299.251.644.251 1.036Zm-.877-.265a.952.952 0 0 0-.332-.742 1.188 1.188 0 0 0-.803-.279c-.29 0-.538.093-.745.28-.206.18-.329.428-.368.741h2.248ZM42.47 70.521c-.319 0-.606-.056-.862-.169a1.556 1.556 0 0 1-.597-.47 1.188 1.188 0 0 1-.236-.669h.87a.606.606 0 0 0 .243.434.928.928 0 0 0 .568.169c.236 0 .417-.044.545-.132.133-.093.2-.21.2-.353 0-.152-.075-.264-.222-.338a3.94 3.94 0 0 0-.685-.242 6.671 6.671 0 0 1-.745-.243 1.337 1.337 0 0 1-.501-.36c-.138-.161-.206-.374-.206-.639a.98.98 0 0 1 .191-.588c.128-.181.31-.323.546-.426.24-.103.516-.154.825-.154.462 0 .833.117 1.113.353.285.23.438.546.457.947h-.84a.596.596 0 0 0-.221-.433c-.133-.108-.312-.162-.538-.162-.221 0-.391.042-.509.125a.386.386 0 0 0-.177.33c0 .108.04.199.118.272a.889.889 0 0 0 .288.177c.113.039.28.09.5.154.296.079.536.16.723.243.192.078.356.196.494.352.138.157.209.365.214.625 0 .23-.064.436-.192.617s-.31.323-.545.426a1.998 1.998 0 0 1-.819.154ZM39.888 66.407v4.048h-.84v-.477a1.386 1.386 0 0 1-.524.397c-.211.093-.437.14-.678.14-.32 0-.607-.067-.863-.2a1.464 1.464 0 0 1-.597-.587c-.142-.26-.213-.573-.213-.94v-2.38h.832v2.255c0 .362.091.641.273.837.182.191.43.287.745.287.314 0 .562-.096.744-.287.187-.196.28-.475.28-.837v-2.256h.84ZM33.27 70.521a2.11 2.11 0 0 1-1.039-.257 1.909 1.909 0 0 1-.73-.735 2.231 2.231 0 0 1-.265-1.102c0-.411.091-.776.273-1.094a1.88 1.88 0 0 1 .744-.735 2.165 2.165 0 0 1 1.054-.257c.389 0 .74.086 1.054.257.315.171.563.416.745.735.182.318.273.683.273 1.094 0 .412-.094.777-.28 1.095a1.955 1.955 0 0 1-.767.742c-.32.172-.673.257-1.062.257Zm0-.727c.217 0 .418-.051.605-.154a1.17 1.17 0 0 0 .464-.463c.118-.206.177-.456.177-.75s-.056-.54-.17-.742a1.137 1.137 0 0 0-.449-.463 1.232 1.232 0 0 0-.604-.154c-.217 0-.418.052-.605.154a1.105 1.105 0 0 0-.435.463c-.108.201-.162.448-.162.742 0 .436.11.774.332 1.014.226.235.508.353.847.353ZM28.823 66.341c.31 0 .584.066.825.198.246.133.438.329.575.588.143.26.214.573.214.94v2.388h-.833v-2.263c0-.362-.09-.639-.273-.83-.181-.196-.43-.294-.744-.294-.315 0-.565.098-.752.294-.182.191-.273.468-.273.83v2.263h-.84V65.02h.84v1.858c.143-.171.322-.303.538-.396.221-.093.462-.14.723-.14ZM25.895 68.332c0 .152-.01.289-.03.411h-3.103c.025.324.145.583.361.779.217.196.482.294.797.294.452 0 .771-.189.958-.566h.907a1.836 1.836 0 0 1-.671.919c-.32.235-.718.352-1.194.352-.389 0-.738-.085-1.047-.257a1.925 1.925 0 0 1-.722-.735 2.282 2.282 0 0 1-.258-1.102c0-.416.083-.78.25-1.094a1.81 1.81 0 0 1 .715-.735c.31-.171.664-.257 1.062-.257.383 0 .724.083 1.024.25.3.166.533.401.7.705.168.299.251.644.251 1.036Zm-.877-.265a.952.952 0 0 0-.332-.742 1.188 1.188 0 0 0-.803-.279c-.29 0-.538.093-.745.28-.206.18-.329.428-.368.741h2.248ZM20.184 66.995a1.3 1.3 0 0 1 .486-.478 1.45 1.45 0 0 1 .73-.176v.867h-.213c-.33 0-.58.083-.752.25-.167.166-.251.455-.251.867v2.13h-.84v-4.048h.84v.588ZM14.068 68.413c0-.407.084-.767.25-1.08a1.868 1.868 0 0 1 1.667-.992c.319 0 .597.064.832.19.241.123.433.278.575.464v-.588h.848v4.048h-.848v-.602c-.142.19-.336.35-.582.477a1.799 1.799 0 0 1-.84.191c-.35 0-.668-.088-.958-.264a1.966 1.966 0 0 1-.693-.75 2.35 2.35 0 0 1-.25-1.094Zm3.324.014c0-.279-.058-.521-.176-.727a1.19 1.19 0 0 0-1.659-.47c-.187.103-.339.257-.457.463-.113.2-.17.44-.17.72 0 .279.057.524.17.734.118.211.27.373.457.485a1.215 1.215 0 0 0 1.209 0c.187-.108.337-.264.45-.47.117-.21.176-.456.176-.735ZM13.655 65.35l-1.518 5.105h-.951l-1.076-3.864-1.143 3.864-.943.008-1.452-5.114h.891l1.062 4.158 1.15-4.158h.943l1.069 4.136 1.069-4.136h.9Z" fill="#fff"/>
    <g clip-path="url(#a)" fill-rule="evenodd" clip-rule="evenodd" fill="#00A76F">
        <path d="M10.87 14.554v5.188l7.558 4.393 1.043-.574V13.22l4.427 2.516v5.192l2.087-1.186v-5.188l-7.557-4.293-7.557 4.293ZM10.87 26.533v2.317l7.558 4.295 11.628-6.606v-2.32l-11.628 6.606-7.557-4.292Z"/>
        <path d="M6.8 12.237v14.302l2.194 1.247V13.474l9.434-5.356 9.433 5.36v7.347l-9.433 5.353-7.557-4.315v2.507l7.557 4.293 11.628-6.607v-9.82L18.428 5.63 6.799 12.237Z"/>
    </g>
    <defs>
        <clipPath id="a">
            <path fill="#fff" transform="translate(6.552 4.898)" d="M0 0h23.751v28.98H0z"/>
        </clipPath>
    </defs>
</svg>
